<svg width="341" height="37" viewBox="0 0 341 37" fill="none" xmlns="http://www.w3.org/2000/svg">
<g clip-path="url(#clip0_332_849)">
<path d="M120.778 0L103.268 36.487H114.083L116.967 30.4874H138.249L141.133 36.487H151.947L134.412 0H120.778ZM120.288 23.5479L127.601 8.32995L134.914 23.5479H120.301H120.288Z" fill="black"/>
<path d="M101.363 0L90.7282 22.1703L80.0808 0H69.266L73.2958 8.38145L66.6782 22.1703L56.0308 0H45.2289L62.7385 36.487H70.6179L78.7032 19.6468L86.7885 36.487H94.6679L112.177 0H101.363Z" fill="black"/>
<path d="M191.447 11.819C191.447 9.05093 190.263 0 174.955 0H153.583V36.4999H163.805V7.00385H171.478C180.027 7.00385 181.019 9.75904 181.019 11.819C181.019 13.776 180.13 16.3252 172.843 16.6084H166.264V16.6341H166.29L180.619 36.487H192.953L182.808 22.4278C187.739 21.4107 191.447 17.0461 191.447 11.8061V11.819Z" fill="black"/>
<path d="M20.7026 0H0L3.07706 6.39874V36.487H20.6897C31.3628 36.487 46.9284 32.4314 46.9284 18.2435C46.9284 4.05554 31.3628 0 20.7026 0ZM21.6939 29.5346H13.3125V6.95235H21.6939C28.6334 6.95235 36.2166 10.9306 36.2166 18.2435C36.2166 25.5563 28.6334 29.5346 21.6939 29.5346Z" fill="black"/>
<path d="M233.149 7.00385L236.509 0H198.104V36.4999H208.326V23.5607H225.192L228.527 16.6213H208.326V7.00385H233.149Z" fill="black"/>
<path d="M322.633 20.78H317.65V26.3934H322.633C327.165 26.3934 327.706 24.9643 327.706 23.5867C327.706 22.2091 327.165 20.78 322.633 20.78Z" fill="black"/>
<path d="M326.212 12.9135C326.212 11.5359 325.671 10.1068 321.139 10.1068H317.637V15.7202H321.139C325.671 15.7202 326.212 14.2911 326.212 12.9135Z" fill="black"/>
<path d="M291.051 22.0801H299.6L295.325 11.0851L291.051 22.0801Z" fill="black"/>
<path d="M342.408 0H256.276C254.229 0 252.362 1.1716 251.487 3.01269L236.694 33.7962C236.102 35.0321 237.003 36.4741 238.38 36.4741H342.421C343.67 36.4741 344.687 35.457 344.687 34.2082V2.27883C344.687 1.02998 343.67 0.0128747 342.421 0.0128747L342.408 0ZM277.816 31.4143H261.298V5.07264H268.675V26.4061H279.901L277.816 31.4272V31.4143ZM303.23 31.4143L301.544 27.0884H289.094L287.407 31.4143H281.086L291.334 5.05977H299.304L309.552 31.4143H303.23ZM324.474 31.4143H312.204V5.07264H322.993C331.13 5.07264 331.761 11.0594 331.774 12.9134C331.774 13.8275 331.606 15.7715 330.448 17.4968C332.932 19.4151 333.254 22.3763 333.254 23.5865C333.254 25.4405 332.611 31.4272 324.474 31.4272V31.4143Z" fill="black"/>
</g>
<defs>
<clipPath id="clip0_332_849">
<rect width="341" height="36.4999" fill="white"/>
</clipPath>
</defs>
</svg>
